<?xml version="1.0" encoding="utf-8"?>
<!-- Generator: Adobe Illustrator 25.4.1, SVG Export Plug-In . SVG Version: 6.00 Build 0)  -->
<svg version="1.1" xmlns="http://www.w3.org/2000/svg" xmlns:xlink="http://www.w3.org/1999/xlink" x="0px" y="0px"
	 viewBox="0 0 160 46" style="enable-background:new 0 0 160 46;" xml:space="preserve">
<style type="text/css">
	.st0{opacity:0.8;fill:none;stroke:#808080;stroke-width:4;stroke-miterlimit:10;}
</style>
<g id="Шар_1">
	<path class="st0" d="M7,2C3.3,28.5,1.9,41.8,3,42C4.9,42.3,13.4,1.7,15,2c1.5,0.3-5.5,39.7-4,40c1.5,0.3,10.3-40.3,12-40
		c1.7,0.3-5.1,39.6-3,40c2.1,0.4,11.7-39.3,13-39c1.3,0.3-6.7,37.6-5,38c1.8,0.4,12.3-38.4,14-38c1.7,0.4-7.2,39.4-5,40
		c2.2,0.6,14.2-39.5,16-39c1.7,0.5-8,38.4-6,39c2,0.6,14.4-37.5,16-37c1.5,0.5-7.9,33.4-6,34c2.1,0.7,15.3-36.6,17-36
		c1.6,0.5-9.9,37.3-8,38c2,0.7,16.6-38.8,19-38c2.4,0.8-8.6,38.5-7,39c1.7,0.5,14.8-38.4,16-38c1.1,0.4-10.4,36.1-8,37
		c2.6,1,19.6-38.6,21-38c1.3,0.6-13.4,35.9-11,37c2.6,1.2,22.5-36.8,24-36c1.5,0.7-16.2,37.4-15,38c1.3,0.7,21.9-39,24-38
		c1.9,0.9-12.8,34.1-11,35c1.9,0.9,20.2-36.2,23-35c2.7,1.2-10.7,36.4-9,37c1.8,0.7,18.4-38.6,20-38c1.6,0.6-11.9,37.2-10,38
		c1.6,0.7,12.8-25.8,15-25c1.3,0.5-1,10-5,24"/>
</g>
<g id="Шар_2">
	<path class="st0" d="M146,3c8.3,16.1,13.4,27.1,12,28c-2.4,1.5-22.3-28.6-25-27c-2.9,1.8,17,39.5,16,40c-1.1,0.6-23.6-42.5-27-41
		c-3.1,1.4,11.2,38.1,9,39c-2.2,0.9-19-38.1-22-37c-2.7,1,7.9,34.3,6,35c-2,0.7-15.5-35.8-18-35c-2.4,0.8,7.1,35.3,5,36
		C99.8,41.7,88,6.2,85,7c-2.9,0.8,5,34.1,2,35C83.6,43,69.5,1.2,67,2c-2.4,0.7,9.2,39.9,6,41C70.6,43.9,57.8,6,54,7
		c-3.6,1,3.8,35.3,1,36C51.9,43.8,39.5,1.3,37,2c-2.4,0.6,6.5,40.4,4,41C38.6,43.6,28.6,8.2,25,9c-3.3,0.7,1.6,31.5-1,32
		C21.2,41.5,12.6,6.6,11,7c-1.5,0.4,6.3,34,3,35c-1.8,0.6-6.7-9.2-13-24"/>
</g>
</svg>
